<svg class="variation-svg" viewBox="99.40001464843749 56.399986267089844 376.1999969482422 462.1999988555908" xmlns="http://www.w3.org/2000/svg" xmlns:xlink="http://www.w3.org/1999/xlink" style="transform: scale(1);"><g><svg data-layer-type="icon" xmlns="http://www.w3.org/2000/svg" xmlns:xlink="http://www.w3.org/1999/xlink" viewBox="617.9992065429688 350.5199890136719 764.0014038085938 1298.969970703125" height="230" width="135.27500915527344" y="126.39998626708984" x="219.86201525878906" preserveAspectRatio="xMinYMin" style="position: absolute;"><linearGradient id="b7eecb5c-3b68-46eb-998b-53ed5fbe3931" x1="1261.12" y1="587.4" x2="1255.76" y2="-67.03" gradientUnits="userSpaceOnUse"><stop offset="0" stop-color="#fc6600"></stop><stop offset="0.03" stop-color="#fca000"></stop><stop offset="0.17" stop-color="#dc6168"></stop><stop offset="0.38" stop-color="#4e4b9e"></stop></linearGradient><linearGradient id="a5767089-4216-4149-85f5-85f57aff37dd" x1="-5826.59" y1="6083.61" x2="-5567.02" y2="6124.37" gradientTransform="matrix(-0.71, 0.39, 0.57, 1.03, -6503.58, -2889.06)" gradientUnits="userSpaceOnUse"><stop offset="0.13" stop-color="#fca000"></stop><stop offset="0.2" stop-color="#fa9c06"></stop><stop offset="0.29" stop-color="#f59217"></stop><stop offset="0.4" stop-color="#ed8232"></stop><stop offset="0.51" stop-color="#e16b58"></stop><stop offset="0.55" stop-color="#dc6168"></stop><stop offset="0.64" stop-color="#c65e70"></stop><stop offset="0.82" stop-color="#8d5586"></stop><stop offset="1" stop-color="#4e4b9e"></stop></linearGradient><linearGradient id="f1450436-a24b-4367-aa1d-436f7b00412a" x1="-2454.93" y1="3778.77" x2="-2472.61" y2="3509.67" gradientTransform="translate(-2821.59 -1350.99) rotate(-89.01)" gradientUnits="userSpaceOnUse"><stop offset="0.01" stop-color="#fca000"></stop><stop offset="0.11" stop-color="#fb9e04"></stop><stop offset="0.2" stop-color="#f7970f"></stop><stop offset="0.29" stop-color="#f18b22"></stop><stop offset="0.38" stop-color="#e97b3d"></stop><stop offset="0.47" stop-color="#df6660"></stop><stop offset="0.49" stop-color="#dc6168"></stop><stop offset="0.56" stop-color="#d25f6c"></stop><stop offset="0.67" stop-color="#b75b76"></stop><stop offset="0.82" stop-color="#8b5487"></stop><stop offset="1" stop-color="#4f4b9e"></stop><stop offset="1" stop-color="#4e4b9e"></stop><stop offset="1" stop-color="#4c519d"></stop></linearGradient><linearGradient id="f6ce5ef3-e0e7-43d3-b4f3-5dea0fc6ada6" x1="-2445.96" y1="4298.97" x2="-2463.64" y2="4029.87" xlink:href="#f1450436-a24b-4367-aa1d-436f7b00412a"></linearGradient><circle id="a344bf1e-52f5-437d-932a-8f8b29e65fe8" dataName="Graphic Elements" class="b399b1fd-d300-49b0-b056-f2b0bca72f37" cx="1260.14" cy="467.64" r="117.12" style="fill: rgb(76, 116, 231); fill-opacity: 1;"></circle><path id="a344bf1e-52f5-437d-932a-8f8b29e65fe8" dataName="Graphic Elements" class="bf9b51cf-6570-4d05-961e-9a03e517899a" d="M1315.43,1617.23h0c-47.49,43.55-128.71,19-181.42-54.83l-442.64-620c-52.7-73.84-56.94-169-9.45-212.56h0c47.48-43.56,128.71-19,181.42,54.82l442.63,620C1358.68,1478.5,1362.91,1573.67,1315.43,1617.23Z" style="fill: rgb(76, 116, 231); fill-opacity: 1;"></path><path id="a344bf1e-52f5-437d-932a-8f8b29e65fe8" dataName="Graphic Elements" class="b0742d71-4312-4ab5-9cd4-a5bbca18f8b8" d="M741.35,1649.49h0c-66.7,0-121-60.39-121.19-134.92L618,839.86c-.24-74.53,53.64-135,120.33-135h0c66.69,0,121,60.39,121.19,134.92l2.12,674.71C861.92,1589,808,1649.47,741.35,1649.49Z" style="fill: rgb(125, 216, 252); fill-opacity: 1;"></path><path id="a344bf1e-52f5-437d-932a-8f8b29e65fe8" dataName="Graphic Elements" class="e8264507-128a-421c-848a-e137d5539979" d="M1261.63,1649.49h0c-66.69,0-121-60.39-121.19-134.92l-2.12-674.71c-.24-74.53,53.64-135,120.33-135h0c66.7,0,120.95,60.39,121.19,134.92L1382,1514.5C1382.2,1589,1328.32,1649.47,1261.63,1649.49Z" style="fill: rgb(125, 216, 252); fill-opacity: 1;"></path></svg></g><g><svg data-layer-type="text" xmlns="http://www.w3.org/2000/svg" y="432.39998626708984" viewBox="0.8600000143051147 5.110000133514404 236.1999969482422 16.19999885559082" x="169.4000146484375" height="16.19999885559082" width="236.1999969482422" style="position: absolute;"><g data-horizontal-grow="center" style="fill: rgb(0, 0, 0); font-size: 18px; font-weight: 300; font-style: normal; font-family: &quot;Space Grotesk&quot;; dominant-baseline: hanging;"><path d="M7.06 17.71L0.86 17.71L0.86 16.67L2.66 16.67L2.66 6.16L0.86 6.16L0.86 5.11L7.11 5.11Q8.19 5.11 9.04 5.51Q9.88 5.90 10.36 6.62Q10.84 7.33 10.84 8.26L10.84 8.26L10.84 8.41Q10.84 9.29 10.49 9.86Q10.15 10.44 9.67 10.76Q9.18 11.09 8.71 11.23L8.71 11.23L8.71 11.45Q9.18 11.56 9.68 11.89Q10.17 12.22 10.50 12.80Q10.84 13.37 10.84 14.26L10.84 14.26L10.84 14.44Q10.84 15.46 10.34 16.20Q9.85 16.94 8.99 17.33Q8.14 17.71 7.06 17.71L7.06 17.71ZM3.82 11.88L3.82 16.67L6.95 16.67Q8.30 16.67 8.99 16.04Q9.68 15.41 9.68 14.35L9.68 14.35L9.68 14.20Q9.68 13.14 8.99 12.51Q8.30 11.88 6.95 11.88L6.95 11.88L3.82 11.88ZM3.82 6.16L3.82 10.84L7.02 10.84Q8.26 10.84 8.97 10.22Q9.68 9.59 9.68 8.59L9.68 8.59L9.68 8.41Q9.68 7.40 8.97 6.78Q8.26 6.16 7.02 6.16L7.02 6.16L3.82 6.16ZM14.54 17.71L13.46 17.71L13.46 8.96L14.51 8.96L14.51 10.06L14.72 10.06Q14.98 9.47 15.47 9.20Q15.97 8.93 16.85 8.93L16.85 8.93L17.87 8.93L17.87 9.94L16.72 9.94Q15.73 9.94 15.14 10.49Q14.54 11.05 14.54 12.24L14.54 12.24L14.54 17.71ZM21.19 17.71L20.11 17.71L20.11 8.96L21.19 8.96L21.19 17.71ZM20.65 7.45L20.65 7.45Q20.25 7.45 19.98 7.18Q19.71 6.91 19.71 6.52L19.71 6.52Q19.71 6.10 19.98 5.84Q20.25 5.58 20.65 5.58L20.65 5.58Q21.06 5.58 21.32 5.84Q21.58 6.10 21.58 6.52L21.58 6.52Q21.58 6.91 21.32 7.18Q21.06 7.45 20.65 7.45ZM25.43 17.71L24.35 17.71L24.35 8.96L25.40 8.96L25.40 10.58L25.61 10.58Q25.94 9.88 26.68 9.33Q27.41 8.78 28.82 8.78L28.82 8.78Q29.77 8.78 30.56 9.18Q31.36 9.58 31.83 10.38Q32.31 11.18 32.31 12.38L32.31 12.38L32.31 17.71L31.23 17.71L31.23 12.46Q31.23 11.02 30.51 10.39Q29.79 9.76 28.58 9.76L28.58 9.76Q27.23 9.76 26.33 10.65Q25.43 11.54 25.43 13.34L25.43 13.34L25.43 17.71ZM34.94 13.37L34.94 13.37L34.94 13.16Q34.94 11.77 35.51 10.78Q36.07 9.79 37.03 9.25Q37.98 8.71 39.15 8.71L39.15 8.71Q40.59 8.71 41.39 9.28Q42.19 9.85 42.57 10.57L42.57 10.57L42.79 10.57L42.79 8.96L43.79 8.96L43.79 19.94Q43.79 20.59 43.45 20.95Q43.11 21.31 42.41 21.31L42.41 21.31L36.43 21.31L36.43 20.34L42.19 20.34Q42.75 20.34 42.75 19.80L42.75 19.80L42.75 16.04L42.53 16.04Q42.30 16.47 41.88 16.88Q41.45 17.30 40.79 17.56Q40.12 17.82 39.15 17.82L39.15 17.82Q37.98 17.82 37.02 17.28Q36.05 16.74 35.50 15.74Q34.94 14.74 34.94 13.37ZM39.40 16.85L39.40 16.85Q40.90 16.85 41.82 15.91Q42.75 14.98 42.75 13.34L42.75 13.34L42.75 13.19Q42.75 11.54 41.82 10.61Q40.90 9.68 39.40 9.68L39.40 9.68Q37.93 9.68 36.99 10.61Q36.05 11.54 36.05 13.19L36.05 13.19L36.05 13.34Q36.05 14.98 36.99 15.91Q37.93 16.85 39.40 16.85ZM57.04 17.71L54.77 17.71Q54.07 17.71 53.72 17.35Q53.37 16.99 53.37 16.34L53.37 16.34L53.37 9.94L50.56 9.94L50.56 8.96L53.37 8.96L53.37 5.69L54.45 5.69L54.45 8.96L57.51 8.96L57.51 9.94L54.45 9.94L54.45 16.20Q54.45 16.74 54.99 16.74L54.99 16.74L57.04 16.74L57.04 17.71ZM61.00 17.71L59.92 17.71L59.92 5.11L61.00 5.11L61.00 10.49L61.22 10.49Q61.43 10.06 61.82 9.68Q62.21 9.29 62.83 9.05Q63.45 8.80 64.39 8.80L64.39 8.80Q65.34 8.80 66.13 9.20Q66.92 9.59 67.40 10.39Q67.88 11.18 67.88 12.38L67.88 12.38L67.88 17.71L66.80 17.71L66.80 12.46Q66.80 11.02 66.08 10.40Q65.36 9.77 64.15 9.77L64.15 9.77Q62.80 9.77 61.90 10.66Q61.00 11.54 61.00 13.34L61.00 13.34L61.00 17.71ZM74.97 17.96L74.97 17.96Q73.62 17.96 72.62 17.40Q71.62 16.83 71.06 15.80Q70.51 14.78 70.51 13.45L70.51 13.45L70.51 13.23Q70.51 11.88 71.06 10.86Q71.62 9.85 72.60 9.28Q73.58 8.71 74.84 8.71L74.84 8.71Q76.07 8.71 77.01 9.23Q77.96 9.74 78.50 10.70Q79.04 11.66 79.04 13.00L79.04 13.00L79.04 13.57L71.59 13.57Q71.64 15.21 72.58 16.10Q73.53 16.99 74.97 16.99L74.97 16.99Q76.19 16.99 76.87 16.43Q77.54 15.88 77.90 15.07L77.90 15.07L78.88 15.50Q78.61 16.09 78.13 16.66Q77.65 17.23 76.90 17.60Q76.14 17.96 74.97 17.96ZM71.60 12.64L71.60 12.64L77.94 12.64Q77.87 11.21 77.02 10.45Q76.18 9.68 74.84 9.68L74.84 9.68Q73.53 9.68 72.67 10.45Q71.80 11.21 71.60 12.64ZM87.43 17.71L86.35 17.71L86.35 8.96L87.39 8.96L87.39 10.06L87.61 10.06Q87.86 9.47 88.35 9.20Q88.85 8.93 89.73 8.93L89.73 8.93L90.76 8.93L90.76 9.94L89.60 9.94Q88.61 9.94 88.02 10.49Q87.43 11.05 87.43 12.24L87.43 12.24L87.43 17.71ZM96.66 17.96L96.66 17.96Q95.33 17.96 94.33 17.40Q93.33 16.83 92.78 15.81Q92.23 14.80 92.23 13.45L92.23 13.45L92.23 13.23Q92.23 11.88 92.78 10.86Q93.33 9.85 94.33 9.28Q95.33 8.71 96.66 8.71L96.66 8.71Q97.99 8.71 98.99 9.28Q99.99 9.85 100.54 10.86Q101.09 11.88 101.09 13.23L101.09 13.23L101.09 13.45Q101.09 14.80 100.54 15.81Q99.99 16.83 98.99 17.40Q97.99 17.96 96.66 17.96ZM96.66 16.99L96.66 16.99Q98.21 16.99 99.11 16.01Q100.01 15.03 100.01 13.41L100.01 13.41L100.01 13.27Q100.01 11.65 99.11 10.67Q98.21 9.68 96.66 9.68L96.66 9.68Q95.13 9.68 94.22 10.67Q93.31 11.65 93.31 13.27L93.31 13.27L93.31 13.41Q93.31 15.03 94.22 16.01Q95.13 16.99 96.66 16.99ZM106.51 17.96L106.51 17.96Q105.59 17.96 104.84 17.65Q104.09 17.33 103.66 16.72Q103.23 16.11 103.23 15.25L103.23 15.25Q103.23 14.36 103.66 13.79Q104.09 13.21 104.83 12.92Q105.57 12.64 106.47 12.64L106.47 12.64L109.67 12.64L109.67 11.93Q109.67 10.87 109.06 10.28Q108.45 9.68 107.28 9.68L107.28 9.68Q106.13 9.68 105.45 10.25Q104.78 10.82 104.54 11.77L104.54 11.77L103.50 11.47Q103.72 10.69 104.18 10.07Q104.65 9.45 105.43 9.08Q106.20 8.71 107.28 8.71L107.28 8.71Q108.94 8.71 109.84 9.58Q110.75 10.44 110.75 11.99L110.75 11.99L110.75 16.24Q110.75 16.78 111.26 16.78L111.26 16.78L112.10 16.78L112.10 17.71L110.95 17.71Q110.39 17.71 110.07 17.38Q109.75 17.05 109.75 16.47L109.75 16.47L109.75 16.34L109.57 16.34Q109.33 16.74 108.96 17.12Q108.59 17.50 108 17.73Q107.41 17.96 106.51 17.96ZM106.58 16.99L106.58 16.99Q107.96 16.99 108.82 16.16Q109.67 15.32 109.67 13.79L109.67 13.79L109.67 13.57L106.49 13.57Q105.55 13.57 104.93 13.98Q104.31 14.38 104.31 15.23L104.31 15.23Q104.31 16.07 104.95 16.53Q105.59 16.99 106.58 16.99ZM117.67 17.96L117.67 17.96Q116.50 17.96 115.54 17.42Q114.59 16.87 114.02 15.85Q113.45 14.83 113.45 13.45L113.45 13.45L113.45 13.23Q113.45 11.84 114.01 10.83Q114.57 9.81 115.53 9.26Q116.50 8.71 117.67 8.71L117.67 8.71Q118.64 8.71 119.30 8.97Q119.97 9.23 120.39 9.64Q120.82 10.04 121.05 10.49L121.05 10.49L121.27 10.49L121.27 5.11L122.35 5.11L122.35 17.71L121.30 17.71L121.30 16.11L121.09 16.11Q120.71 16.83 119.91 17.40Q119.11 17.96 117.67 17.96ZM117.92 16.99L117.92 16.99Q119.41 16.99 120.34 16.04Q121.27 15.08 121.27 13.41L121.27 13.41L121.27 13.27Q121.27 11.59 120.34 10.64Q119.41 9.68 117.92 9.68L117.92 9.68Q116.44 9.68 115.51 10.64Q114.57 11.59 114.57 13.27L114.57 13.27L114.57 13.41Q114.57 15.08 115.51 16.04Q116.44 16.99 117.92 16.99ZM135.59 17.71L133.33 17.71Q132.62 17.71 132.27 17.35Q131.92 16.99 131.92 16.34L131.92 16.34L131.92 9.94L129.11 9.94L129.11 8.96L131.92 8.96L131.92 5.69L133.00 5.69L133.00 8.96L136.06 8.96L136.06 9.94L133.00 9.94L133.00 16.20Q133.00 16.74 133.54 16.74L133.54 16.74L135.59 16.74L135.59 17.71ZM142.15 17.96L142.15 17.96Q140.81 17.96 139.81 17.40Q138.82 16.83 138.27 15.81Q137.72 14.80 137.72 13.45L137.72 13.45L137.72 13.23Q137.72 11.88 138.27 10.86Q138.82 9.85 139.81 9.28Q140.81 8.71 142.15 8.71L142.15 8.71Q143.48 8.71 144.48 9.28Q145.48 9.85 146.03 10.86Q146.57 11.88 146.57 13.23L146.57 13.23L146.57 13.45Q146.57 14.80 146.03 15.81Q145.48 16.83 144.48 17.40Q143.48 17.96 142.15 17.96ZM142.15 16.99L142.15 16.99Q143.69 16.99 144.59 16.01Q145.49 15.03 145.49 13.41L145.49 13.41L145.49 13.27Q145.49 11.65 144.59 10.67Q143.69 9.68 142.15 9.68L142.15 9.68Q140.62 9.68 139.71 10.67Q138.80 11.65 138.80 13.27L138.80 13.27L138.80 13.41Q138.80 15.03 139.71 16.01Q140.62 16.99 142.15 16.99ZM160.38 21.31L155.05 21.31L155.05 20.34L160.16 20.34Q160.70 20.34 160.70 19.80L160.70 19.80L160.70 16.20L160.49 16.20Q160.27 16.63 159.88 17.02Q159.50 17.41 158.88 17.65Q158.26 17.89 157.32 17.89L157.32 17.89Q156.38 17.89 155.58 17.50Q154.78 17.10 154.31 16.31Q153.83 15.52 153.83 14.31L153.83 14.31L153.83 8.96L154.91 8.96L154.91 14.24Q154.91 15.66 155.63 16.29Q156.35 16.92 157.55 16.92L157.55 16.92Q158.90 16.92 159.80 16.04Q160.70 15.16 160.70 13.36L160.70 13.36L160.70 8.96L161.78 8.96L161.78 19.94Q161.78 20.59 161.43 20.95Q161.08 21.31 160.38 21.31L160.38 21.31ZM168.95 17.96L168.95 17.96Q167.62 17.96 166.62 17.40Q165.62 16.83 165.07 15.81Q164.52 14.80 164.52 13.45L164.52 13.45L164.52 13.23Q164.52 11.88 165.07 10.86Q165.62 9.85 166.62 9.28Q167.62 8.71 168.95 8.71L168.95 8.71Q170.28 8.71 171.28 9.28Q172.28 9.85 172.83 10.86Q173.38 11.88 173.38 13.23L173.38 13.23L173.38 13.45Q173.38 14.80 172.83 15.81Q172.28 16.83 171.28 17.40Q170.28 17.96 168.95 17.96ZM168.95 16.99L168.95 16.99Q170.50 16.99 171.40 16.01Q172.30 15.03 172.30 13.41L172.30 13.41L172.30 13.27Q172.30 11.65 171.40 10.67Q170.50 9.68 168.95 9.68L168.95 9.68Q167.42 9.68 166.51 10.67Q165.60 11.65 165.60 13.27L165.60 13.27L165.60 13.41Q165.60 15.03 166.51 16.01Q167.42 16.99 168.95 16.99ZM179.48 17.89L179.48 17.89Q178.54 17.89 177.74 17.50Q176.94 17.10 176.46 16.30Q175.99 15.50 175.99 14.29L175.99 14.29L175.99 8.96L177.07 8.96L177.07 14.22Q177.07 15.64 177.79 16.28Q178.51 16.92 179.71 16.92L179.71 16.92Q181.06 16.92 181.96 16.03Q182.86 15.14 182.86 13.34L182.86 13.34L182.86 8.96L183.94 8.96L183.94 17.71L182.90 17.71L182.90 16.09L182.68 16.09Q182.36 16.79 181.62 17.34Q180.88 17.89 179.48 17.89ZM188.19 17.71L187.11 17.71L187.11 8.96L188.15 8.96L188.15 10.06L188.37 10.06Q188.62 9.47 189.12 9.20Q189.61 8.93 190.49 8.93L190.49 8.93L191.52 8.93L191.52 9.94L190.37 9.94Q189.38 9.94 188.78 10.49Q188.19 11.05 188.19 12.24L188.19 12.24L188.19 17.71ZM199.48 21.31L198.40 21.31L198.40 8.96L199.44 8.96L199.44 10.57L199.66 10.57Q200.03 9.85 200.83 9.28Q201.64 8.71 203.08 8.71L203.08 8.71Q204.25 8.71 205.20 9.26Q206.15 9.81 206.72 10.82Q207.29 11.83 207.29 13.23L207.29 13.23L207.29 13.45Q207.29 14.83 206.73 15.85Q206.17 16.87 205.22 17.42Q204.26 17.96 203.08 17.96L203.08 17.96Q202.12 17.96 201.45 17.70Q200.77 17.44 200.35 17.03Q199.93 16.61 199.69 16.18L199.69 16.18L199.48 16.18L199.48 21.31ZM202.82 16.99L202.82 16.99Q204.32 16.99 205.24 16.04Q206.17 15.08 206.17 13.41L206.17 13.41L206.17 13.27Q206.17 11.59 205.24 10.64Q204.32 9.68 202.82 9.68L202.82 9.68Q201.35 9.68 200.41 10.64Q199.48 11.59 199.48 13.27L199.48 13.27L199.48 13.41Q199.48 15.08 200.41 16.04Q201.35 16.99 202.82 16.99ZM212.71 17.96L212.71 17.96Q211.79 17.96 211.04 17.65Q210.29 17.33 209.86 16.72Q209.43 16.11 209.43 15.25L209.43 15.25Q209.43 14.36 209.86 13.79Q210.29 13.21 211.03 12.92Q211.77 12.64 212.67 12.64L212.67 12.64L215.87 12.64L215.87 11.93Q215.87 10.87 215.26 10.28Q214.65 9.68 213.48 9.68L213.48 9.68Q212.33 9.68 211.65 10.25Q210.98 10.82 210.74 11.77L210.74 11.77L209.70 11.47Q209.92 10.69 210.38 10.07Q210.85 9.45 211.63 9.08Q212.40 8.71 213.48 8.71L213.48 8.71Q215.14 8.71 216.04 9.58Q216.95 10.44 216.95 11.99L216.95 11.99L216.95 16.24Q216.95 16.78 217.46 16.78L217.46 16.78L218.30 16.78L218.30 17.71L217.15 17.71Q216.59 17.71 216.27 17.38Q215.95 17.05 215.95 16.47L215.95 16.47L215.95 16.34L215.77 16.34Q215.53 16.74 215.16 17.12Q214.79 17.50 214.20 17.73Q213.61 17.96 212.71 17.96ZM212.78 16.99L212.78 16.99Q214.16 16.99 215.02 16.16Q215.87 15.32 215.87 13.79L215.87 13.79L215.87 13.57L212.69 13.57Q211.75 13.57 211.13 13.98Q210.51 14.38 210.51 15.23L210.51 15.23Q210.51 16.07 211.15 16.53Q211.79 16.99 212.78 16.99ZM221.44 17.71L220.36 17.71L220.36 5.11L221.44 5.11L221.44 17.71ZM225.68 17.71L224.60 17.71L224.60 8.96L225.65 8.96L225.65 10.12L225.86 10.12Q226.13 9.63 226.73 9.21Q227.32 8.78 228.42 8.78L228.42 8.78Q229.48 8.78 230.14 9.27Q230.80 9.76 231.08 10.44L231.08 10.44L231.30 10.44Q231.61 9.76 232.25 9.27Q232.90 8.78 234.07 8.78L234.07 8.78Q234.97 8.78 235.64 9.15Q236.30 9.52 236.68 10.18Q237.06 10.84 237.06 11.72L237.06 11.72L237.06 17.71L235.98 17.71L235.98 11.83Q235.98 10.89 235.41 10.32Q234.85 9.76 233.82 9.76L233.82 9.76Q232.78 9.76 232.07 10.43Q231.37 11.11 231.37 12.40L231.37 12.40L231.37 17.71L230.29 17.71L230.29 11.83Q230.29 10.89 229.72 10.32Q229.16 9.76 228.13 9.76L228.13 9.76Q227.09 9.76 226.39 10.43Q225.68 11.11 225.68 12.40L225.68 12.40L225.68 17.71Z" transform="translate(0, 0)"></path></g></svg></g><g><svg data-layer-type="text" xmlns="http://www.w3.org/2000/svg" y="387.39998626708984" viewBox="2.309999942779541 6.940000057220459 125.41000366210938 23.059999465942383" x="224.7950177001953" height="23.059999465942383" width="125.41000366210938" style="position: absolute;"><g data-horizontal-grow="center" style="fill: rgb(0, 0, 0); font-size: 32px; font-weight: 500; font-style: normal; font-family: Roboto; dominant-baseline: hanging; text-transform: capitalize;"><path d="M20.36 6.94L20.36 29.69L16.41 29.69L6.27 13.55L6.27 29.69L2.31 29.69L2.31 6.94L6.27 6.94L16.44 23.14L16.44 6.94L20.36 6.94ZM32.11 30L32.11 30Q28.50 30 26.26 27.73Q24.02 25.45 24.02 21.67L24.02 21.67L24.02 21.20Q24.02 18.67 24.99 16.68Q25.97 14.69 27.73 13.58Q29.50 12.47 31.67 12.47L31.67 12.47Q35.13 12.47 37.01 14.67Q38.89 16.88 38.89 20.91L38.89 20.91L38.89 22.44L27.84 22.44Q28.02 24.53 29.24 25.75Q30.47 26.97 32.33 26.97L32.33 26.97Q34.94 26.97 36.58 24.86L36.58 24.86L38.63 26.81Q37.61 28.33 35.91 29.16Q34.22 30 32.11 30ZM31.66 15.52L31.66 15.52Q30.09 15.52 29.13 16.61Q28.17 17.70 27.91 19.66L27.91 19.66L35.14 19.66L35.14 19.38Q35.02 17.47 34.13 16.49Q33.23 15.52 31.66 15.52ZM44.75 12.78L47.91 18.34L51.13 12.78L55.34 12.78L50.17 21.11L55.52 29.69L51.33 29.69L47.95 23.91L44.59 29.69L40.38 29.69L45.72 21.11L40.56 12.78L44.75 12.78ZM58.89 8.67L62.69 8.67L62.69 12.78L65.67 12.78L65.67 15.59L62.69 15.59L62.69 25.03Q62.69 26 63.07 26.43Q63.45 26.86 64.44 26.86L64.44 26.86Q65.09 26.86 65.77 26.70L65.77 26.70L65.77 29.64Q64.47 30 63.27 30L63.27 30Q58.89 30 58.89 25.17L58.89 25.17L58.89 15.59L56.11 15.59L56.11 12.78L58.89 12.78L58.89 8.67ZM85.20 29.69L76.91 29.69L76.91 6.94L84.70 6.94Q88.56 6.94 90.58 8.48Q92.59 10.03 92.59 13.09L92.59 13.09Q92.59 14.66 91.75 15.91Q90.91 17.16 89.28 17.84L89.28 17.84Q91.13 18.34 92.13 19.73Q93.14 21.11 93.14 23.05L93.14 23.05Q93.14 26.25 91.09 27.97Q89.03 29.69 85.20 29.69L85.20 29.69ZM85.58 19.42L80.86 19.42L80.86 26.53L85.25 26.53Q87.11 26.53 88.16 25.61Q89.20 24.69 89.20 23.05L89.20 23.05Q89.20 19.50 85.58 19.42L85.58 19.42ZM80.86 10.13L80.86 16.52L84.73 16.52Q86.58 16.52 87.62 15.68Q88.66 14.84 88.66 13.31L88.66 13.31Q88.66 11.63 87.70 10.88Q86.73 10.13 84.70 10.13L84.70 10.13L80.86 10.13ZM107.06 29.69L106.97 28.03Q105.30 30 102.22 30L102.22 30Q99.47 30 98.05 28.39Q96.64 26.78 96.64 23.73L96.64 23.73L96.64 12.78L100.44 12.78L100.44 23.69Q100.44 26.91 103.11 26.91L103.11 26.91Q105.88 26.91 106.84 24.92L106.84 24.92L106.84 12.78L110.64 12.78L110.64 29.69L107.06 29.69ZM123.98 25.09L123.98 25.09Q123.98 24.08 123.15 23.55Q122.31 23.02 120.38 22.61Q118.44 22.20 117.14 21.58L117.14 21.58Q114.30 20.20 114.30 17.59L114.30 17.59Q114.30 15.41 116.14 13.94Q117.98 12.47 120.83 12.47L120.83 12.47Q123.86 12.47 125.73 13.97Q127.59 15.47 127.59 17.86L127.59 17.86L123.80 17.86Q123.80 16.77 122.98 16.04Q122.17 15.31 120.83 15.31L120.83 15.31Q119.58 15.31 118.79 15.89Q118 16.47 118 17.44L118 17.44Q118 18.31 118.73 18.80Q119.47 19.28 121.70 19.77Q123.94 20.27 125.21 20.95Q126.48 21.63 127.10 22.58Q127.72 23.53 127.72 24.89L127.72 24.89Q127.72 27.17 125.83 28.59Q123.94 30 120.88 30L120.88 30Q118.80 30 117.17 29.25Q115.55 28.50 114.64 27.19Q113.73 25.88 113.73 24.36L113.73 24.36L117.42 24.36Q117.50 25.70 118.44 26.43Q119.38 27.16 120.92 27.16L120.92 27.16Q122.42 27.16 123.20 26.59Q123.98 26.02 123.98 25.09Z" transform="translate(0, 0)"></path></g></svg></g></svg>